<?xml version="1.0" encoding="utf-8"?>
<!-- Generator: Adobe Illustrator 24.0.0, SVG Export Plug-In . SVG Version: 6.00 Build 0)  -->
<svg version="1.1" id="Layer_1" xmlns="http://www.w3.org/2000/svg" xmlns:xlink="http://www.w3.org/1999/xlink" x="0px" y="0px"
	 viewBox="0 0 256 256" style="enable-background:new 0 0 256 256;" xml:space="preserve">
<style type="text/css">
	.st0{fill:#FFB69F;}
	.st1{fill:#72C2E9;}
	.st2{fill:#C2E5FF;}
	.st3{fill:#FC5D3D;}
	.st4{fill:#AFAFAF;}
	.st5{fill:#FFCBC3;}
	.st6{fill:#F0C020;}
	.st7{fill:#F8E5B0;}
	.st8{fill:#EFEFEF;}
	.st9{fill:#EEC21E;}
	.st10{fill:#FFFFFF;}
	.st11{fill:#F1BF21;}
	.st12{fill:#E8A61E;}
	.st13{fill:#7D7B79;}
	.st14{fill:#B34F33;}
	.st15{fill:#F8E5B2;}
	.st16{fill:#C5E5FE;}
	.st17{fill:#4C4944;}
	.st18{fill:#4BA5C8;}
	.st19{fill:#AFAEAF;}
	.st20{fill:#CF941C;}
	.st21{fill:#7C7B7A;}
	.st22{fill:#FAE0E1;}
	.st23{fill:#13BF6D;}
	.st24{fill:#76FFBB;}
	.st25{fill:#F2E1D7;}
	.st26{fill:#878787;}
	.st27{fill:#F9E5AF;}
	.st28{fill:#E8A61F;}
	.st29{fill:none;stroke:#000000;stroke-width:5;stroke-linecap:round;stroke-linejoin:round;stroke-miterlimit:10;}
	.st30{fill:#EFEFF0;}
	.st31{fill:#E8A61B;}
	.st32{fill:#EFEFEE;}
	.st33{fill:#4C4945;}
	.st34{fill:#EA8F7D;}
	.st35{fill:#D6C0B3;}
	.st36{fill:#EEC120;}
</style>
<g>
</g>
<g>
	<path class="st3" d="M214.443,223.288v20.067c0,2.842-2.304,5.145-5.145,5.145H46.703c-2.842,0-5.145-2.304-5.145-5.145v-20.067
		c0-2.842,2.304-5.145,5.145-5.145h162.595C212.139,218.142,214.443,220.446,214.443,223.288z"/>
	<path class="st5" d="M204.443,241H65.8c-1.381,0-2.5-1.119-2.5-2.5s1.119-2.5,2.5-2.5h136.143v-7.857c0-1.381,1.119-2.5,2.5-2.5
		s2.5,1.119,2.5,2.5V238.5C206.943,239.881,205.823,241,204.443,241z M55.8,241h-4.243c-1.381,0-2.5-1.119-2.5-2.5
		s1.119-2.5,2.5-2.5H55.8c1.381,0,2.5,1.119,2.5,2.5S57.181,241,55.8,241z"/>
	<path class="st3" d="M194.15,218.142H61.851l18.122-61.272l8.727-29.483l8.716-29.494l8.727-29.483l16.924-57.225
		c1.454-4.915,8.415-4.915,9.868,0l16.924,57.225l8.727,29.483l8.716,29.494l8.727,29.483L194.15,218.142z"/>
	<path class="st5" d="M155.83,129.89c-1.101,0-2.09-0.74-2.4-1.79l-8.72-29.5c-0.394-1.324,0.357-2.715,1.689-3.109
		c1.301-0.381,2.73,0.409,3.11,1.689l8.72,29.5C158.694,128.24,157.542,129.89,155.83,129.89z"/>
	<path class="st5" d="M177.02,207.85l-14.87-50.27c-0.39-1.32,0.37-2.721,1.69-3.11c1.3-0.38,2.729,0.41,3.11,1.69l14.869,50.27
		c0.402,1.35-0.39,2.724-1.689,3.11C178.83,209.931,177.41,209.169,177.02,207.85z"/>
	<path class="st5" d="M138.39,70.91c-1.1,0-2.09-0.74-2.399-1.79L125.6,34c-0.39-1.32,0.37-2.72,1.69-3.11
		c1.3-0.38,2.729,0.41,3.109,1.69l10.391,35.12C141.263,69.297,140.068,70.91,138.39,70.91z"/>
	<polygon class="st8" points="158.585,97.894 97.416,97.894 106.143,68.411 149.858,68.411 	"/>
	<path class="st10" d="M144.71,98.6l-8.72-29.479c-0.391-1.32,0.369-2.721,1.689-3.11c1.3-0.38,2.73,0.41,3.11,1.69l8.72,29.479
		c0.383,1.286-0.334,2.707-1.69,3.11C146.526,100.681,145.1,99.921,144.71,98.6z"/>
	<polygon class="st8" points="176.027,156.871 79.973,156.871 88.7,127.388 167.301,127.388 	"/>
	<path class="st10" d="M162.15,157.58l-8.72-29.48c-0.4-1.35,0.39-2.725,1.69-3.109c1.3-0.381,2.729,0.409,3.109,1.689l8.71,29.48
		c0.403,1.288-0.334,2.711-1.68,3.109C163.982,159.661,162.544,158.913,162.15,157.58z"/>
	<circle cx="89.72" cy="218.14" r="2.5"/>
	<path d="M120.67,10.479l-7.32,24.761c-0.39,1.319,0.36,2.71,1.68,3.1c1.3,0.39,2.73-0.4,3.11-1.69c0,0,0,0,0-0.01l7.32-24.74
		c0.797-2.539,4.284-2.537,5.08,0l15.975,54.011h-37.027l2.982-10.08c0.39-1.32-0.37-2.71-1.69-3.101c-1.29-0.39-2.73,0.4-3.1,1.681
		l-47.7,161.229H46.7c-4.21,0-7.64,3.43-7.64,7.65v20.069c0,4.21,3.43,7.641,7.64,7.641h162.6c4.21,0,7.64-3.431,7.64-7.641V223.29
		c0-4.221-3.43-7.65-7.64-7.65h-13.28l-60.69-205.16C133.213,3.156,122.769,3.191,120.67,10.479z M172.679,154.37H156.03
		c-1.381,0-2.5,1.12-2.5,2.5s1.119,2.5,2.5,2.5h18.127l16.643,56.27H99.72c-1.38,0-2.5,1.12-2.5,2.5s1.12,2.5,2.5,2.5
		c0,0,0,0,0.01,0H209.3c1.45,0.01,2.64,1.19,2.64,2.65v20.069c0,1.45-1.189,2.641-2.64,2.641H46.7c-1.45,0-2.64-1.19-2.64-2.641
		V223.29c0-1.46,1.19-2.641,2.64-2.65h33.02c1.38,0,2.5-1.12,2.5-2.5s-1.12-2.5-2.5-2.5H65.197l16.645-56.27h54.189
		c1.38,0,2.5-1.12,2.5-2.5s-1.12-2.5-2.5-2.5h-52.71l7.242-24.48h74.876L172.679,154.37z M163.959,124.89H92.041l7.247-24.5h57.424
		L163.959,124.89z M155.234,95.39h-54.466l7.241-24.479h39.985L155.234,95.39z"/>
	<path d="M112.2,47.93c1.277,0.391,2.707-0.346,3.1-1.689c0.39-1.32-0.36-2.71-1.68-3.101c-1.3-0.39-2.73,0.4-3.11,1.68
		C110.108,46.195,110.908,47.547,112.2,47.93z"/>
	<circle cx="146.03" cy="156.87" r="2.5"/>
</g>
</svg>
